<svg xmlns="http://www.w3.org/2000/svg" id="Layer_1" viewBox="0 0 512 512" width="512" height="512"><style>.st0{fill:#fefefe}.st1{fill:#2c2c2c}</style><path d="M460.8 10.2H51.2c-22.5 0-41 18.4-41 41v409.6c0 22.5 18.4 41 41 41h409.6c22.5 0 41-18.4 41-41V51.2c0-22.5-18.5-41-41-41z" class="st0"/><path d="M409.6 165.9c-11.3 5.1-28.7 11.3-41 13.3 13.3-8.2 25.6-26.6 30.7-41-10.2 6.1-21.5 14.3-32.8 18.4l-8.2-8.2c-11.3-12.3-22.5-20.5-41-20.5-34.8 0-61.4 26.6-61.4 61.4 0 4.1 0 7.2 1 10.2h-1c-61.4 0-102.4-13.3-133.1-51.2-5.1 9.2-10.2 19.5-10.2 30.7 0 21.5 13.3 39.9 30.7 51.2-10.2 0-22.5-5.1-30.7-10.2 0 30.7 43 65.5 71.7 71.7-10.2 10.2-47.1 1-51.2 0 8.2 24.6 33.8 39.9 61.4 41-21.5 16.4-47.1 25.6-76.8 25.6-5.1 0-10.2 0-15.4-1C130 374.8 169 384 204.8 384c115.7 0 174.1-91.1 174.1-174.1v-10.2c12.3-9.2 22.5-21.5 30.7-33.8z" class="st1"/></svg>