<svg xmlns="http://www.w3.org/2000/svg" id="Layer_1" viewBox="0 0 512 512" width="512" height="512"><style>.st0{fill:#fefefe}.st1{fill:#2c2c2c}</style><path d="M0 64v384c0 35.3 28.7 64 64 64h384c35.3 0 64-28.7 64-64V64c0-35.3-28.7-64-64-64H64C28.7 0 0 28.7 0 64z" class="st0"/><path d="M400.9 366.4c0 19-15.5 34.5-34.5 34.5H145.6c-19 0-34.5-15.5-34.5-34.5V219h53.7c-4.6 11.4-7.3 23.9-7.3 36.9 0 54.3 44.2 98.4 98.4 98.4 54.3 0 98.4-44.2 98.4-98.4 0-13.1-2.6-25.5-7.3-36.9h53.7l.2 147.4zM204.6 219c11.5-16 30.2-26.4 51.4-26.4 21.1 0 39.9 10.5 51.4 26.4 7.5 10.4 12 23.2 12 36.9 0 34.9-28.5 63.4-63.4 63.4s-63.4-28.4-63.4-63.4c0-13.7 4.5-26.4 12-36.9zm181.8-101.5h8v61l-60.8.2-.2-61 53-.2zm-20-41.5H145.6C107.2 76 76 107.2 76 145.6v220.9c0 38.4 31.2 69.6 69.6 69.6h220.9c38.4 0 69.6-31.2 69.6-69.6v-221C436 107.2 404.8 76 366.4 76z" class="st1"/></svg>