<svg xmlns="http://www.w3.org/2000/svg" xmlns:xlink="http://www.w3.org/1999/xlink" id="Layer_1" viewBox="0 0 512 512" width="512" height="512"><style>.st0{clip-path:url(#SVGID_2_);fill:#fefefe}.st1{clip-path:url(#SVGID_4_);fill:#232f36}</style><defs><path id="SVGID_1_" d="M0 0h512v512H0z"/></defs><clipPath id="SVGID_2_"><use overflow="visible" xlink:href="#SVGID_1_"/></clipPath><path d="M512 480c0 17.7-14.3 32-32 32H32c-17.7 0-32-14.3-32-32V32C0 14.3 14.3 0 32 0h448c17.7 0 32 14.3 32 32v448z" class="st0"/><defs><path id="SVGID_3_" d="M0 0h512v512H0z"/></defs><clipPath id="SVGID_4_"><use overflow="visible" xlink:href="#SVGID_3_"/></clipPath><path d="M352 512V320h64l16-80h-80v-32c0-32 16-48 48-48h32V80h-64c-58.8 0-96 46.1-96 112v48h-64v80h64v192h80z" class="st1"/></svg>