<svg xmlns="http://www.w3.org/2000/svg" width="2372.5" height="647.9" viewBox="0 0 2372.5 647.9"><path fill="#232f36" d="M755.3 37.1c-37.3-12.4-81.6 29.7-114.4-1.9L605 38.8c-7.3-14.3-36-44.1-37.4-10.5-.7 20 12.8 39.8 19.3 58-14.5 117.1-105.1 188.9-206.2 235.1-47 21.5-95.3 45.9-129 86.3-35.5 42.5-41 95.4-22.1 146.3h-4.1a113.8 113.8 0 0 1-113.8-113.7 112.3 112.3 0 0 1 10.4-47.5 113.8 113.8 0 1 0 119.2 187.5c38.8 52.9 120.7 32.5 169.3 16.5 75.8-24.9 175.5-63.7 249.5-14.1 16.4-115.7 19.1-232.3 3.6-348.3-5-38-19.2-99.5 27.7-118.4 19.5-7.8 43.6.2 58.3-18.6 12.9-16.4 9.1-41.3 5.6-60.3z"/><path fill="#ff8f00" d="M804.8 276.2c-13.4-34.2-50.7-47.7-82.9-29.9l-18 9.9-7.5-19.1c-13.4-34.3-50.7-47.7-82.9-30-32.2 17.8-47.6 60.3-34.1 94.6l7.5 19.1 48.8 124.4 117-64.6 18-9.9c32.2-17.8 47.5-60.3 34.1-94.5z"/><path fill="#232f36" d="M972.4 209.5h-79.5v32.2h73.7v33.4h-73.7v73.8h-44.3V176.1h123.8zm122.9 48.9h-3.7c-1.8-.7-4.6-1.1-8.6-1.4s-7.2-.5-9.8-.5a93.2 93.2 0 0 0-15.8 1.2 89.8 89.8 0 0 0-14.7 3.9v87.3h-41.9V218.6h41.9v19.1c9.2-7.9 17.2-13.1 24-15.7a53.1 53.1 0 0 1 18.8-3.9h5l4.8.4zm152.1 33h-95.7c.6 10.3 4.5 18.1 11.7 23.5s17.7 8.1 31.6 8.1a73.1 73.1 0 0 0 25.7-4.7c8.2-3.2 14.8-6.6 19.6-10.3h4.6v33.6a151.8 151.8 0 0 1-26.7 8.2 138.7 138.7 0 0 1-27.7 2.6q-39.3 0-60.1-17.7c-14-11.7-20.9-28.5-20.9-50.2s6.6-38.6 19.8-51.1 31.2-18.9 54.2-18.9c21.2 0 37.2 5.4 47.8 16.1s16.1 26.1 16.1 46.2zm-41.6-24.4c-.2-8.8-2.4-15.4-6.5-19.8s-10.5-6.6-19.1-6.6-14.7 2.1-19.9 6.3-8.1 10.8-8.7 20.1zm199.4 24.4h-95.6c.6 10.3 4.5 18.1 11.6 23.5s17.7 8.1 31.7 8.1a72.5 72.5 0 0 0 25.6-4.7c8.3-3.2 14.8-6.6 19.6-10.3h4.7v33.6a157.1 157.1 0 0 1-26.7 8.2 139.8 139.8 0 0 1-27.8 2.6c-26.1 0-46.2-5.9-60.1-17.7s-20.9-28.5-20.9-50.2 6.6-38.6 19.8-51.1 31.3-18.9 54.3-18.9q31.8 0 47.8 16.1t16 46.2zm-41.5-24.4c-.3-8.8-2.4-15.4-6.5-19.8s-10.5-6.6-19.2-6.6-14.7 2.1-19.8 6.3-8.1 10.8-8.7 20.1zm197.7 81.9h-41.9v-13.6a92.5 92.5 0 0 1-20.1 13 52.8 52.8 0 0 1-21.7 4.2c-15.9 0-28.5-6.1-38-18.3s-14.3-28.7-14.3-49.5q0-16.6 4.8-29.4a66.2 66.2 0 0 1 13.2-22 53.5 53.5 0 0 1 19.1-13.5 56.9 56.9 0 0 1 22.5-4.8c7.8 0 14.2.8 19.2 2.5a112.7 112.7 0 0 1 15.3 6.3v-55.5h41.9zm-41.9-35.9v-64a36.1 36.1 0 0 0-9.2-2.7 61.1 61.1 0 0 0-9-.8c-10.9 0-19.1 3.4-24.6 10.3s-8.2 16.3-8.2 28.5 2.2 22.1 6.6 27.8 11.4 8.7 21.1 8.7a39 39 0 0 0 12.1-2.1 45.3 45.3 0 0 0 11.2-5.7zm214.6-29.2q0 32.1-18.7 50.6t-52.7 18.6q-33.9 0-52.6-18.6t-18.7-50.6c0-21.6 6.2-38.5 18.8-50.8s30.1-18.5 52.5-18.5 40.4 6.2 52.8 18.6 18.6 29.3 18.6 50.7zm-51.4 31.7a35.8 35.8 0 0 0 6.1-12c1.4-4.7 2-11.2 2-19.5a74.5 74.5 0 0 0-2.1-19.2c-1.4-5.2-3.3-9.4-5.8-12.5a20.1 20.1 0 0 0-8.9-6.7 33.7 33.7 0 0 0-22-.3c-3.1 1-6.1 3.2-9 6.5a33.4 33.4 0 0 0-6.1 12.4c-1.5 5.2-2.2 11.9-2.2 19.8a77.4 77.4 0 0 0 1.9 18.5 32.1 32.1 0 0 0 5.8 12.6 22.8 22.8 0 0 0 8.9 6.6 31.4 31.4 0 0 0 11.8 2.1 29.9 29.9 0 0 0 10.8-1.9 19.9 19.9 0 0 0 8.8-6.4zm208.7-59v92.4h-41.9v-65.1c0-6.4-.2-11.8-.5-16.2a28.7 28.7 0 0 0-2.5-10.9 12.5 12.5 0 0 0-6.4-6c-2.8-1.3-6.7-2-11.9-2a31 31 0 0 0-11.9 2.5 102.4 102.4 0 0 0-10.5 5.3v92.4h-41.9V218.6h41.9V233a113.4 113.4 0 0 1 20.7-13.3 49 49 0 0 1 21.8-4.7 44.5 44.5 0 0 1 22.7 5.7 39 39 0 0 1 15.4 16.9 135 135 0 0 1 24.3-16.6 51.4 51.4 0 0 1 23.2-6q21.1 0 32.1 12.6c7.3 8.4 10.9 20.6 10.9 36.5v84.8H1935v-65.1c0-6.4-.1-11.9-.4-16.3a28.6 28.6 0 0 0-2.5-10.8 12.1 12.1 0 0 0-6.2-6c-2.9-1.3-6.9-2-12.1-2a29.6 29.6 0 0 0-10.2 1.8 74.6 74.6 0 0 0-12.2 6zm-879.5 243.1c0 16.1-3.7 30.5-11.1 43.3s-16.6 22.5-27.8 29.3a87.7 87.7 0 0 1-27.7 10.7c-10.1 2-22 3-35.8 3h-60.9V413.1h62.6c14.1 0 26.3 1.1 36.5 3.5s18.8 5.7 25.8 10a78.1 78.1 0 0 1 28.1 29.5c6.8 12.3 10.3 26.8 10.3 43.5zm-46.1-.3c0-11.4-2.1-21.1-6.2-29.2s-10.7-14.4-19.7-19a56 56 0 0 0-14-4.6c-4.7-.8-11.9-1.2-21.5-1.2h-11.3v108.2h11.3c10.6 0 18.4-.5 23.3-1.5a49.5 49.5 0 0 0 14.5-5.2 42.9 42.9 0 0 0 17.9-18.7c3.8-7.7 5.7-17.4 5.7-28.8zm211 21.5c0 21.4-6.3 38.3-18.7 50.6s-30.1 18.5-52.7 18.5-40.1-6.1-52.6-18.5-18.8-29.2-18.8-50.6 6.3-38.6 18.9-50.9 30.1-18.4 52.5-18.4 40.3 6.2 52.8 18.5 18.6 29.3 18.6 50.8zm-51.4 31.7a35.3 35.3 0 0 0 6.1-12.1c1.3-4.6 2-11.1 2-19.4a75.3 75.3 0 0 0-2.1-19.3 33.3 33.3 0 0 0-5.8-12.4 19.9 19.9 0 0 0-8.9-6.7 34.6 34.6 0 0 0-22-.4 21.5 21.5 0 0 0-9 6.5 33.2 33.2 0 0 0-6.1 12.5 72.7 72.7 0 0 0-2.3 19.8 77 77 0 0 0 2 18.5 33.5 33.5 0 0 0 5.8 12.6 22.1 22.1 0 0 0 8.9 6.6 31 31 0 0 0 11.8 2.1 29.9 29.9 0 0 0 10.8-1.9 19.9 19.9 0 0 0 8.8-6.4zm208.1 18.4c0 12.2-1.8 22.5-5.2 30.9s-8.4 14.9-14.7 19.6a58.6 58.6 0 0 1-22.7 10.4 129.6 129.6 0 0 1-30 3.2 215.1 215.1 0 0 1-26.7-1.7 197.8 197.8 0 0 1-22.8-3.9v-32.6h5.1a136.9 136.9 0 0 0 18.6 5.5 88.4 88.4 0 0 0 19.7 2.5c7.8 0 14-.7 18.9-2.2s8.5-3.4 11-6a22.4 22.4 0 0 0 5.3-9.6 55.3 55.3 0 0 0 1.6-13.9v-2.4a61.8 61.8 0 0 1-16.7 9.7 55.3 55.3 0 0 1-20.4 3.6c-18.3 0-32.3-5.5-42.2-16.5s-14.8-27.7-14.8-50.1c0-10.8 1.5-20 4.5-27.9a61.1 61.1 0 0 1 12.7-20.4 52.3 52.3 0 0 1 18.9-12.6 60.8 60.8 0 0 1 22.9-4.6 70.7 70.7 0 0 1 19.1 2.5 63.9 63.9 0 0 1 15.7 6.9l1.6-5.8h40.6zm-41.9-26.1v-59.1a40.9 40.9 0 0 0-8.8-2.4 67.5 67.5 0 0 0-9.4-.8c-11 0-19.2 3.1-24.7 9.4s-8.2 15.1-8.2 26.4 2.3 21.3 7 26.3 11.6 7.4 20.8 7.4a39.6 39.6 0 0 0 12.3-2 44.5 44.5 0 0 0 11-5.2zm280.1 41.1h-54.5l-47-63.4h-20.6v63.4h-44.4V413.1h74.8a166.4 166.4 0 0 1 26.3 1.7 58.5 58.5 0 0 1 20.7 7.5 45.7 45.7 0 0 1 15.5 15.1q5.7 9.2 5.7 23.1c0 12.8-2.9 23.2-8.9 31.3s-14.3 14.7-25.3 20zM1502.1 466a22.1 22.1 0 0 0-2.6-11.2c-1.8-3.1-4.9-5.5-9.2-7.3a32.6 32.6 0 0 0-10.6-2.2c-4-.3-8.7-.4-14-.4h-16.1v46.5h13.7a127 127 0 0 0 17.8-1 25.3 25.3 0 0 0 12.1-4.8 22.7 22.7 0 0 0 6.8-7.9c1.4-3 2.1-6.8 2.1-11.7zm215.1 62.4h-95.6c.6 10.2 4.5 18.1 11.6 23.5s17.7 8.1 31.7 8.1a70.5 70.5 0 0 0 25.6-4.8c8.3-3.1 14.8-6.5 19.6-10.2h4.7v33.6a157.1 157.1 0 0 1-26.7 8.2 139.8 139.8 0 0 1-27.8 2.6c-26.1 0-46.2-5.9-60.1-17.7s-20.9-28.5-20.9-50.2 6.6-38.6 19.8-51.2 31.3-18.8 54.3-18.8c21.2 0 37.1 5.3 47.8 16.1s16 26.1 16 46.2zm-41.5-24.5c-.3-8.7-2.4-15.3-6.5-19.7s-10.5-6.6-19.2-6.6-14.7 2.1-19.8 6.3-8.1 10.8-8.7 20zm184.3 40.7c0 13.4-6.1 24.3-18.1 32.5s-28.6 12.4-49.6 12.4a140 140 0 0 1-31.6-3.3c-9.4-2.1-17-4.5-22.7-7.2v-34.3h3.8c2.1 1.4 4.5 3.1 7.3 4.8a74.7 74.7 0 0 0 11.6 5.6 99.6 99.6 0 0 0 14.8 4.6 76 76 0 0 0 17.6 1.9c8.2 0 14.3-.9 18.2-2.7s6-4.5 6-8.1a7.7 7.7 0 0 0-3.5-6.9c-2.3-1.4-6.8-2.8-13.3-4.1-3.1-.7-7.3-1.4-12.5-2.3a142.7 142.7 0 0 1-14.5-2.9c-11.8-3.1-20.6-7.9-26.3-14.5s-8.6-14.7-8.6-24.4c0-12.5 5.9-23 17.8-31.3s28.1-12.5 48.7-12.5a127.8 127.8 0 0 1 28 3c8.9 2 15.9 4.1 20.9 6.3v33h-3.6a83 83 0 0 0-21.1-10.4 74.7 74.7 0 0 0-24.1-4c-6.7 0-12.4.9-17 2.8s-6.9 4.5-6.9 7.9a8.5 8.5 0 0 0 3.1 7.1c2.1 1.6 7 3.2 14.8 4.8 4.2.9 8.8 1.7 13.7 2.5s9.8 1.9 14.8 3.1c11 2.9 19.1 7.4 24.4 13.5s7.9 13.9 7.9 23.1zm95.6 44.8a112.7 112.7 0 0 1-31.2-4.1 69.3 69.3 0 0 1-24.5-12.5 57.2 57.2 0 0 1-16-21.4c-3.8-8.6-5.7-18.6-5.7-30.2s2-22.6 6.1-31.4a58.8 58.8 0 0 1 17-22 67.1 67.1 0 0 1 24.4-12 104.5 104.5 0 0 1 28.6-3.9 100 100 0 0 1 24.6 2.9 121.2 121.2 0 0 1 21 7.6V498h-5.9l-5.8-4.9a61.3 61.3 0 0 0-8.4-5.4 54.8 54.8 0 0 0-10.5-4.2 43.6 43.6 0 0 0-13.2-1.7c-11.1 0-19.7 3.5-25.6 10.6s-9 16.7-9 28.8 3 22.1 9.2 28.6 14.8 9.7 26.1 9.7a51.5 51.5 0 0 0 14.2-1.8 47.7 47.7 0 0 0 10.5-4.2 57.1 57.1 0 0 0 7-4.9c2-1.7 3.8-3.3 5.5-5h5.9v35.7a109.4 109.4 0 0 1-20.6 7.3 96.3 96.3 0 0 1-23.7 2.8zm201.8-3.5h-41.9v-14.4a124.9 124.9 0 0 1-21.2 13.4c-6.4 3-14 4.6-22.9 4.6-14.4 0-25.5-4.2-33.2-12.4s-11.7-20.5-11.7-36.7v-84.9h41.9v64.7a150 150 0 0 0 .7 16.4 29.4 29.4 0 0 0 2.9 10.9 13.5 13.5 0 0 0 6.7 6.2c3 1.3 7.1 2 12.5 2a41.6 41.6 0 0 0 11.8-2 48.7 48.7 0 0 0 12.5-5.8v-92.4h41.9zm167.9-57.5h-95.7c.6 10.2 4.5 18.1 11.7 23.5s17.7 8.1 31.6 8.1a71 71 0 0 0 25.7-4.8c8.2-3.1 14.8-6.5 19.6-10.2h4.6v33.6a151.8 151.8 0 0 1-26.7 8.2 138.7 138.7 0 0 1-27.7 2.6q-39.3 0-60.1-17.7c-14-11.7-20.9-28.5-20.9-50.2s6.6-38.6 19.8-51.2 31.2-18.8 54.2-18.8c21.2 0 37.2 5.3 47.8 16.1s16.1 26.1 16.1 46.2zm-41.6-24.5c-.2-8.7-2.4-15.3-6.5-19.7s-10.5-6.6-19.1-6.6-14.7 2.1-19.9 6.3-8.1 10.8-8.7 20z"/></svg>