<svg xmlns="http://www.w3.org/2000/svg" width="13038.4" height="3581.6" viewBox="0 0 13038.4 3581.6"><title>logo</title><g id="Layer_2" data-name="Layer 2"><path d="M4307.6,320.6c-190.1-63.3-415.4,151.1-582.6-9.8l-182.4,18.1c-37.4-72.7-183.7-224.4-190.4-53.2-4,101.8,65.1,202.8,98.1,295.1-73.9,595.9-535.1,961.9-1049.6,1196.8-239.4,109.3-485.2,233.5-657,439.3-180.6,216.4-208.7,485.5-112.4,744.7-7,.3-14,.5-21,.5-319.9,0-579.2-259.3-579.2-579.2a576.9,576.9,0,0,1,52.8-241.9c-222.1,81-380.7,294.1-380.7,544.3,0,319.9,259.3,579.2,579.2,579.2,159.4,0,303.8-64.5,408.5-168.8,197.4,269.2,614.3,165.1,862,83.8C2938.4,3043,3446.4,2845.1,3823,3098c83.2-589.4,97-1182.5,18.4-1773.2-25.8-193.5-97.9-506.4,140.5-602.6,99.4-40,222,.9,297.2-94.9C4344.7,543.8,4325.2,417.4,4307.6,320.6Z" fill="#232f36"/><path d="M4559.4,1537.5h0c-68.3-174.2-258.2-242.8-422-152.4l-91.7,50.6-38.2-97.4c-68.3-174.2-258.2-242.8-422-152.3h0c-163.8,90.4-242,306.9-173.7,481.1l38.2,97.5L3698.4,2398l595.7-328.8,91.6-50.6C4549.5,1928.2,4627.7,1711.7,4559.4,1537.5Z" fill="#ff8f00"/><path d="M5412.6,1198H5007.9v163.7h375.2v170.1H5007.9v375.8H4782.2V1027.9h630.4Z" fill="#232f36"/><path d="M6038.3,1446.8h-18.9c-9-3.2-23.6-5.5-43.6-7.1s-36.8-2.4-50.1-2.4q-45.4,0-80.2,5.9t-74.9,20.1v444.3H5557.4V1244.1h213.2v97.5q70.2-60.3,122.1-80.1c34.5-13.1,66.4-19.7,95.5-19.7,7.4,0,15.9.2,25.3.6s17.7.9,24.8,1.7Z" fill="#232f36"/><path d="M6812.2,1615.1H6325.4c3.2,52,22.9,91.8,59.4,119.4s90.1,41.3,161,41.3a360.3,360.3,0,0,0,130.5-24.2q63.3-24.1,99.9-52h23.6v170.8q-72,28.9-135.9,41.9t-141.2,13q-199.6,0-306-89.8t-106.3-255.8q0-164.2,100.7-260.2t276.2-96.1q161.8,0,243.4,81.9t81.5,235.4Zm-211.5-124.6q-1.8-66.7-33.1-100.4t-97.5-33.7q-61.4,0-101,31.9t-44.3,102.2Z" fill="#232f36"/><path d="M7615.7,1615.1H7128.9q4.7,78,59.4,119.4t161,41.3a360.3,360.3,0,0,0,130.5-24.2q63.3-24.1,99.9-52h23.6v170.8q-72,28.9-135.9,41.9t-141.2,13q-199.6,0-306-89.8t-106.4-255.8q0-164.2,100.8-260.2t276.2-96.1q161.8,0,243.4,81.9t81.5,235.4Zm-211.5-124.6q-1.8-66.7-33.1-100.4c-20.9-22.5-53.3-33.7-97.5-33.7q-61.4,0-101,31.9t-44.3,102.2Z" fill="#232f36"/><path d="M8410.9,1907.6H8197.7v-69.1q-54.9,44.9-102.7,66.1t-110.4,21.3q-120.9,0-193.5-93.3t-72.6-251.7q0-84.5,24.5-149.8t67-111.9q40-44.4,97.3-68.9t114.5-24.5q59.6,0,97.7,12.7a664.3,664.3,0,0,1,78.2,32.2V988.3h213.2ZM8197.7,1725V1398.9a213.6,213.6,0,0,0-47.2-13.6,283,283,0,0,0-45.4-4.1q-83.7,0-125.5,52.4t-41.9,145.2q0,97.7,33.6,141.7t107.9,44.1c19.2,0,39.7-3.6,61.3-10.9S8181.2,1736.8,8197.7,1725Z" fill="#232f36"/><path d="M9290.1,1576.2q0,163.6-95.5,257.8t-267.9,94.3q-172.5,0-267.9-94.3t-95.4-257.8q0-164.9,96-258.8t267.3-94q173.7,0,268.5,94.6T9290.1,1576.2Zm-261.8,161.2q20.7-25.4,31-61.1t10.4-99c0-39-3.6-71.6-10.6-98s-17-47.5-29.6-63.3-27.8-27.5-45.5-34.2a160.5,160.5,0,0,0-57.3-10.1q-30.7,0-54.7,8.3c-15.9,5.5-31.2,16.6-45.7,33.1-13,15.4-23.4,36.4-31.1,63.2s-11.5,60.5-11.5,101q0,54.5,10.1,94.3c6.7,26.6,16.5,47.9,29.5,64.1s27.7,26.6,45.2,33.6,37.5,10.7,60,10.7a157.3,157.3,0,0,0,55.2-9.8Q9010,1760.5,9028.3,1737.4Z" fill="#232f36"/><path d="M10090.6,1437.3v470.3H9877.3V1576.2q0-48.5-2.4-82.5c-1.5-22.6-5.9-41-13-55.2a64.6,64.6,0,0,0-32.1-31q-21.6-9.7-60.6-9.8a153.9,153.9,0,0,0-60.9,12.7,452.2,452.2,0,0,0-53.1,26.9v470.3H9441.9V1244.1h213.3v73.3c36.5-28.8,71.6-51.2,105-67.4s70.4-24.2,110.9-24.2q65.5,0,115.7,29.2t78.5,86q63.6-53.7,123.8-84.5t118-30.7q107.4,0,163.1,64.4t55.8,185.5v431.9h-213.3V1576.2q0-49-2-82.8c-1.4-22.4-5.7-40.7-12.7-54.9s-17.4-24.5-31.9-31-35.1-9.8-61.5-9.8a152.8,152.8,0,0,0-52,9.2Q10127.3,1416.1,10090.6,1437.3Z" fill="#232f36"/><path d="M5613.5,2675q0,122.9-56.1,220t-141.8,149.2q-64.5,39-141.2,54.4t-182,15.3H4782.2V2234.2h319.1q107.4,0,185.5,18t131.1,51.1q91.1,55.6,143.3,149.8T5613.5,2675Zm-234.6-1.8q0-86.8-31.6-148.6T5247.2,2428a259.4,259.4,0,0,0-71.2-23.3c-24.2-4.2-60.8-6.2-109.6-6.2h-57.3v550.6h57.3c54,0,93.5-2.5,118.8-7.4a257.8,257.8,0,0,0,73.8-26.9q62.1-35.4,91-94.8T5378.9,2673.2Z" fill="#232f36"/><path d="M6453,2782.5q0,163.6-95.4,257.9t-267.9,94.2q-172.5,0-267.9-94.2t-95.5-257.9q0-164.9,96-258.8t267.4-93.9q173.7,0,268.5,94.5T6453,2782.5Zm-261.7,161.3c13.8-17,24.1-37.3,31-61.2s10.4-56.8,10.4-98.9q0-58.5-10.7-98.1t-29.5-63.2q-18.9-24.3-45.5-34.3t-57.3-10q-30.7,0-54.7,8.2t-45.8,33.1q-19.5,23.1-31,63.2t-11.5,101.1c0,36.2,3.3,67.6,10.1,94.2s16.5,48,29.5,64.1a112.3,112.3,0,0,0,45.2,33.7q26.3,10.7,59.9,10.6a157.8,157.8,0,0,0,55.3-9.7C6164.2,2970.1,6179.1,2959.1,6191.3,2943.8Z" fill="#232f36"/><path d="M7250.6,3037.7q0,93.5-26.6,157.2t-74.4,99.8q-47.9,36.6-115.5,52.9t-152.7,16.2a1114.3,1114.3,0,0,1-136.2-8.2c-44.7-5.6-83.4-12.2-116.1-20.1v-166H6655q39,15.3,95,28t100.3,12.7q58.9,0,95.9-10.9c24.6-7.3,43.3-17.6,56.3-31s21.1-28.8,26.6-48.5,8.2-43.3,8.2-70.9v-12.4a315.5,315.5,0,0,1-84.9,49.7q-46.6,18.3-103.9,18.3-139.2,0-214.8-83.9t-75.5-255.2q0-82.2,23-141.8t64.9-104q39-41.4,95.9-64.4t116.5-23.1c35.8,0,68.4,4.3,97.7,12.7s55.9,20.2,79.9,35.2l7.8-29.5h206.7Zm-213.3-132.9V2604.1c-12.2-5.1-27.1-9.2-44.8-12.2s-33.6-4.4-47.7-4.4q-83.7,0-125.6,48.2t-41.8,134.4q0,95.7,35.6,133.5t105.8,37.8a198.9,198.9,0,0,0,62.5-10A237,237,0,0,0,7037.3,2904.8Z" fill="#232f36"/><path d="M8463.1,3113.9H8186l-239.3-322.5H7841.6v322.5H7615.9V2234.2h380.5q78,0,134.1,8.9a289.1,289.1,0,0,1,105.1,38.4q49.6,29.5,78.9,76.5t29.3,117.9q0,97.5-45.2,158.9T8169.5,2737Zm-353.9-610.3q0-33-13.6-56.7t-46.7-37.2q-22.9-9.4-53.7-11.5t-71.5-2.1h-82.1V2633h69.7q54.3,0,91-5.3c24.4-3.6,44.9-11.6,61.4-24.2s27.3-25.7,34.6-40.5S8109.2,2528.4,8109.2,2503.6Z" fill="#232f36"/><path d="M9204,2821.5H8717.1q4.8,78,59.4,119.3t161,41.4a363.3,363.3,0,0,0,130.6-24.2q63.1-24.3,99.8-52h23.7v170.7q-72.1,29-135.9,41.9t-141.2,13q-199.8,0-306.1-89.8T8502.1,2786q0-164.2,100.7-260.2t276.2-96q161.8,0,243.4,81.8T9204,2747Zm-211.5-124.7q-1.8-66.7-33.1-100.4t-97.5-33.7q-61.5,0-101,31.9t-44.3,102.2Z" fill="#232f36"/><path d="M9930.6,2903.6q0,102.8-92.1,165.7t-252.3,62.9q-88.7,0-160.7-16.5t-115.8-36.6V2904.2h19.5c10.7,7.5,23,15.6,36.9,24.5s33.8,18.4,59.4,28.7q33.2,13.5,75,23.3t89.8,9.7q62.7,0,92.8-13.8t30.1-41.1c0-16.1-5.9-27.9-17.7-35.2s-34.2-14.2-67.3-20.9q-23.7-5.4-64.1-11.5a709.1,709.1,0,0,1-73.6-15.1q-90.4-23.7-134.1-73.6t-43.7-124.3q0-95.7,90.7-159.2t247.8-63.6a663.3,663.3,0,0,1,142.7,15.1q68.3,15.2,106.6,32.2v167.8h-18.3q-47.2-32.5-107.8-52.9a381.7,381.7,0,0,0-122.6-20.4c-34.3,0-63.1,4.8-86.6,14.2s-35.1,22.9-35.1,40.2c0,15.8,5.3,27.7,15.9,36s35.7,16.6,75.1,24.8c21.6,4.4,45,8.6,70,12.7s50.1,9.4,75.3,15.7q83.9,21.9,124.1,68.8T9930.6,2903.6Z" fill="#232f36"/><path d="M10417.5,3131.6q-86.8,0-158.7-20.6t-124.9-63.8q-52.6-43.2-81.6-108.7t-28.9-153.6q0-92.8,31-160.2t86.6-111.6q53.7-42,124-61.5a543.7,543.7,0,0,1,146-19.5q67.9,0,125.2,14.8a601,601,0,0,1,107,38.4v181.4h-30.1c-8.3-7.1-18.2-15.4-29.8-24.8s-25.9-18.7-42.8-27.8a282,282,0,0,0-53.1-21.6q-28.9-8.5-67.2-8.5-85.1,0-130.7,54t-45.7,146.9q0,95.7,46.9,145.3t133,49.6q40,0,72.3-9.1t53.4-21.6a262.2,262.2,0,0,0,35.4-24.8c10.2-8.7,19.6-17.1,28.3-25.4h30.1v181.4a592,592,0,0,1-104.9,37.5Q10483.7,3131.6,10417.5,3131.6Z" fill="#232f36"/><path d="M11444.9,3113.9h-213.3v-73.2q-59,44.9-108,68.2t-116.8,23.3q-109.8,0-169.1-63.2t-59.2-186.7V2450.5h213.2v329q0,50.3,3.3,83.6t15,55.3a68.2,68.2,0,0,0,34,31.9q22.8,10,63.5,10,27.2,0,60.3-10a259.3,259.3,0,0,0,63.8-29.6V2450.5h213.3Z" fill="#232f36"/><path d="M12299.2,2821.5h-486.8q4.6,78,59.3,119.3t161,41.4a363.3,363.3,0,0,0,130.6-24.2q63.2-24.3,99.8-52h23.7v170.7q-72.1,29-135.9,41.9t-141.2,13q-199.8,0-306.1-89.8T11597.3,2786q0-164.2,100.7-260.2t276.2-96q162,0,243.4,81.8t81.6,235.4Zm-211.5-124.7q-1.8-66.7-33.1-100.4t-97.5-33.7q-61.5,0-101,31.9t-44.3,102.2Z" fill="#232f36"/></g></svg>