<svg xmlns="http://www.w3.org/2000/svg" width="2948.3" height="805.1" viewBox="0 0 2948.3 805.1"><path fill="#232f36" d="M1015.6 97.4c-39.7-13.3-86.8 31.6-121.8-2.1l-38.1 3.8c-7.8-15.2-38.4-46.9-39.8-11.1-.8 21.3 13.6 42.4 20.5 61.7-15.5 124.5-111.9 201-219.4 250.1-50 22.9-101.4 48.9-137.3 91.9-37.8 45.2-43.7 101.5-23.5 155.7h-4.4a121.2 121.2 0 0 1-110.1-171.6 121.1 121.1 0 1 0 126.9 199.6c41.3 56.3 128.4 34.5 180.2 17.5 80.6-26.4 186.8-67.8 265.5-15 17.4-123.2 20.3-247.1 3.8-370.6-5.3-40.5-20.4-105.9 29.4-126 20.8-8.4 46.4.2 62.1-19.8 13.8-17.5 9.7-43.9 6-64.1z"/><path fill="#ff8f00" d="M1068.2 351.7c-14.2-36.4-53.9-50.7-88.2-31.8l-19.1 10.6-8-20.4c-14.3-36.4-54-50.7-88.2-31.8-34.3 18.9-50.6 64.1-36.3 100.5l7.9 20.4 52 132.4 124.5-68.7 19.1-10.6c34.3-18.9 50.6-64.1 36.3-100.6z"/><path fill="#232f36" d="M1246.6 280.8H1162V315h78.4v35.6H1162v78.5h-47.2V245.2h131.8zm130.8 52h-4a35.9 35.9 0 0 0-9.1-1.5c-4.2-.3-7.7-.5-10.5-.5a102.9 102.9 0 0 0-16.7 1.2 112.1 112.1 0 0 0-15.7 4.2v92.9h-44.5V290.4h44.5v20.4c9.8-8.4 18.3-14 25.5-16.7s13.9-4.2 20-4.2l5.3.2c2 0 3.7.2 5.2.3zm161.8 35.2h-101.8c.7 10.8 4.8 19.2 12.4 24.9s18.8 8.7 33.7 8.7a75.5 75.5 0 0 0 27.3-5.1c8.8-3.4 15.7-7 20.8-10.9h5v35.7a160 160 0 0 1-28.4 8.8 149.6 149.6 0 0 1-29.5 2.7c-27.9 0-49.2-6.2-64-18.8s-22.3-30.3-22.3-53.4 7.1-41.1 21.1-54.4 33.3-20.1 57.7-20.1q33.9 0 50.9 17.1t17.1 49.2zm-44.2-26.1c-.3-9.3-2.6-16.3-7-21s-11.1-7-20.3-7-15.6 2.2-21.2 6.7-8.6 11.5-9.2 21.3zm212.1 26.1h-101.7c.6 10.8 4.8 19.2 12.4 24.9s18.8 8.7 33.6 8.7a75.1 75.1 0 0 0 27.3-5.1c8.8-3.4 15.8-7 20.9-10.9h4.9v35.7a157.5 157.5 0 0 1-28.4 8.8 148.9 148.9 0 0 1-29.5 2.7c-27.8 0-49.1-6.2-64-18.8s-22.2-30.3-22.2-53.4 7-41.1 21.1-54.4 33.2-20.1 57.7-20.1c22.6 0 39.5 5.7 50.9 17.1s17 27.8 17 49.2zm-44.2-26.1q-.3-13.9-6.9-21c-4.4-4.7-11.2-7-20.4-7s-15.6 2.2-21.1 6.7-8.6 11.5-9.3 21.3zm210.5 87.2h-44.6v-14.4c-7.7 6.2-14.8 10.8-21.5 13.8s-14.3 4.4-23.1 4.4c-16.8 0-30.3-6.5-40.4-19.5s-15.2-30.5-15.2-52.6c0-11.8 1.7-22.2 5.1-31.3a71.8 71.8 0 0 1 14-23.4 57.3 57.3 0 0 1 20.4-14.4 60.5 60.5 0 0 1 23.9-5.1c8.3 0 15.1.9 20.4 2.6a146.7 146.7 0 0 1 16.4 6.8v-59.1h44.6zm-44.6-38.2v-68.1a45.4 45.4 0 0 0-9.9-2.9 66.4 66.4 0 0 0-9.5-.8c-11.6 0-20.4 3.6-26.2 10.9s-8.8 17.4-8.8 30.4 2.4 23.5 7.1 29.6 12.2 9.2 22.5 9.2a38.1 38.1 0 0 0 12.8-2.3 44.9 44.9 0 0 0 12-6zm228.3-31.1q0 34.2-19.9 53.9c-13.3 13.2-32 19.7-56 19.7s-42.7-6.5-56-19.7-20-31.1-20-53.9 6.7-41 20.1-54.1 32-19.6 55.9-19.6 42.9 6.6 56.1 19.8 19.8 31.1 19.8 53.9zm-54.7 33.7a34.7 34.7 0 0 0 6.5-12.7c1.4-5 2.2-11.9 2.2-20.7a78.8 78.8 0 0 0-2.3-20.5 35.2 35.2 0 0 0-6.1-13.2 21.9 21.9 0 0 0-9.5-7.2 34 34 0 0 0-12-2.1 37.1 37.1 0 0 0-11.5 1.7 23.8 23.8 0 0 0-9.5 6.9 36.7 36.7 0 0 0-6.5 13.3c-1.6 5.6-2.4 12.6-2.4 21.1a81.5 81.5 0 0 0 2.1 19.7c1.4 5.5 3.4 10 6.2 13.4a23 23 0 0 0 9.4 7 32.8 32.8 0 0 0 12.5 2.2 32.2 32.2 0 0 0 11.6-2 20.4 20.4 0 0 0 9.3-6.9zm222.1-62.7v98.3h-44.6v-69.3c0-6.7-.2-12.5-.5-17.2a29.5 29.5 0 0 0-2.7-11.5 13.4 13.4 0 0 0-6.8-6.5q-4.5-2.1-12.6-2.1a31.2 31.2 0 0 0-12.7 2.7 89.8 89.8 0 0 0-11.2 5.6v98.3h-44.5V290.4h44.5v15.3a119.1 119.1 0 0 1 22-14 52.3 52.3 0 0 1 23.2-5.1c9.1 0 17.2 2 24.2 6.1a42.2 42.2 0 0 1 16.4 18 135.9 135.9 0 0 1 25.9-17.7c8.4-4.3 16.6-6.4 24.6-6.4 15 0 26.4 4.5 34.1 13.5s11.7 21.9 11.7 38.7v90.3h-44.6v-69.3c0-6.8-.1-12.6-.4-17.3a29 29 0 0 0-2.7-11.4 12.5 12.5 0 0 0-6.7-6.5c-3-1.4-7.3-2.1-12.8-2.1a34.2 34.2 0 0 0-10.9 1.9 84.2 84.2 0 0 0-12.9 6.4zm-935.9 258.7c0 17.1-3.9 32.5-11.7 46s-17.8 24-29.7 31.2a93.3 93.3 0 0 1-29.5 11.4 199.7 199.7 0 0 1-38 3.2h-64.9V497.4h66.7c15 0 27.9 1.2 38.8 3.8s20 6 27.4 10.6a84.2 84.2 0 0 1 30 31.3c7.2 13.2 10.9 28.6 10.9 46.4zm-49-.3c0-12.2-2.2-22.5-6.7-31.1s-11.3-15.3-20.9-20.2a54.3 54.3 0 0 0-14.9-4.9 156.1 156.1 0 0 0-22.9-1.3h-12v115.1h12c11.3 0 19.6-.5 24.8-1.5a53.5 53.5 0 0 0 15.5-5.6c8.6-5 15-11.6 19-19.9s6.1-18.5 6.1-30.6zm224.5 22.8q0 34.2-20 53.9c-13.3 13.1-31.9 19.7-56 19.7s-42.7-6.6-56-19.7-19.9-31.1-19.9-53.9 6.7-41 20-54.1 32-19.6 55.9-19.6 42.9 6.6 56.2 19.7 19.8 31.2 19.8 54zm-54.7 33.7a35.8 35.8 0 0 0 6.4-12.8c1.5-5 2.2-11.8 2.2-20.7a80.3 80.3 0 0 0-2.2-20.5 36.9 36.9 0 0 0-6.2-13.2 21.9 21.9 0 0 0-9.5-7.1 37.1 37.1 0 0 0-23.4-.4c-3.3 1.1-6.5 3.5-9.6 6.9s-4.8 7.6-6.5 13.2-2.4 12.7-2.4 21.1a80.9 80.9 0 0 0 2.1 19.7 34.1 34.1 0 0 0 6.2 13.4 22.7 22.7 0 0 0 9.5 7.1 32.4 32.4 0 0 0 12.5 2.2 33.9 33.9 0 0 0 11.5-2 22 22 0 0 0 9.4-6.9zm221.4 19.6c0 13.1-1.8 24-5.6 32.9s-8.8 15.8-15.5 20.9a62.6 62.6 0 0 1-24.2 11 134.5 134.5 0 0 1-31.9 3.4 236.7 236.7 0 0 1-52.7-5.9v-34.7h5.4a147.3 147.3 0 0 0 19.9 5.9 99.9 99.9 0 0 0 20.9 2.6c8.2 0 14.9-.7 20.1-2.3s9-3.7 11.7-6.5a23.1 23.1 0 0 0 5.6-10.1 57.4 57.4 0 0 0 1.7-14.8v-2.6a65.4 65.4 0 0 1-17.7 10.4 60.4 60.4 0 0 1-21.8 3.8c-19.4 0-34.3-5.8-44.9-17.5s-15.7-29.5-15.7-53.4c0-11.4 1.6-21.3 4.8-29.6a66.7 66.7 0 0 1 13.5-21.8 56.7 56.7 0 0 1 20.1-13.4 64.2 64.2 0 0 1 24.3-4.8 73.3 73.3 0 0 1 20.5 2.6 64.8 64.8 0 0 1 16.7 7.4l1.6-6.2h43.2zm-44.6-27.7v-62.9a38.8 38.8 0 0 0-9.3-2.5 64.9 64.9 0 0 0-10-1c-11.7 0-20.4 3.4-26.3 10.1s-8.7 16.1-8.7 28.1 2.5 22.6 7.4 27.9 12.4 7.9 22.2 7.9a41.6 41.6 0 0 0 13-2.1 48.4 48.4 0 0 0 11.7-5.5zm298.1 43.7h-58l-50-67.4h-22v67.4h-47.1V497.4h79.5a187 187 0 0 1 28 1.8 62.2 62.2 0 0 1 22 8.1 47.7 47.7 0 0 1 16.5 16c4.1 6.5 6.1 14.7 6.1 24.6 0 13.6-3.1 24.7-9.4 33.2s-15.3 15.7-27 21.4zm-74-127.6a23.6 23.6 0 0 0-2.9-11.9c-1.9-3.2-5.1-5.8-9.7-7.7a37 37 0 0 0-11.3-2.4c-4.2-.3-9.2-.5-14.9-.5h-17.2v49.6h14.6a125.4 125.4 0 0 0 19-1.2 27.5 27.5 0 0 0 12.9-5 24.6 24.6 0 0 0 7.2-8.5c1.5-3.1 2.3-7.2 2.3-12.4zm228.8 66.5h-101.7c.6 10.8 4.8 19.1 12.4 24.9s18.8 8.6 33.6 8.6a75 75 0 0 0 27.3-5c8.8-3.4 15.8-7 20.9-10.9h4.9v35.7a166 166 0 0 1-28.4 8.8 148.9 148.9 0 0 1-29.5 2.7q-41.7 0-64-18.8t-22.2-53.5q0-34.4 21.1-54.4t57.7-20c22.6 0 39.5 5.7 50.9 17.1s17 27.8 17 49.2zm-44.2-26.1q-.3-14-6.9-21c-4.4-4.7-11.2-7-20.4-7s-15.6 2.2-21.1 6.6-8.6 11.6-9.3 21.4zm196.1 43.2c0 14.3-6.4 25.9-19.2 34.7s-30.5 13.1-52.8 13.1a151.7 151.7 0 0 1-33.6-3.4c-10-2.4-18.1-4.9-24.2-7.7v-36.6h4.1c2.2 1.6 4.8 3.3 7.7 5.2a97.2 97.2 0 0 0 12.4 6 112.3 112.3 0 0 0 15.7 4.8 80.8 80.8 0 0 0 18.8 2.1c8.7 0 15.2-1 19.4-2.9s6.3-4.8 6.3-8.6a8.3 8.3 0 0 0-3.7-7.4c-2.5-1.5-7.2-2.9-14.1-4.4-3.3-.7-7.8-1.5-13.4-2.4a139.4 139.4 0 0 1-15.4-3.1c-12.6-3.3-21.9-8.4-28-15.4s-9.1-15.6-9.1-26q0-19.9 18.9-33.3t51.8-13.2a137.5 137.5 0 0 1 29.8 3.1 124.6 124.6 0 0 1 22.3 6.7v35.1h-3.8a90.6 90.6 0 0 0-22.5-11 78.8 78.8 0 0 0-25.7-4.3c-7.1 0-13.2 1-18 3s-7.4 4.7-7.4 8.4 1.1 5.8 3.3 7.5 7.5 3.5 15.7 5.2c4.5.9 9.4 1.8 14.7 2.6s10.4 2 15.7 3.3c11.7 3.1 20.3 7.9 25.9 14.4s8.4 14.7 8.4 24.5zm101.8 47.7a123 123 0 0 1-33.2-4.3 73.4 73.4 0 0 1-26.1-13.4 60.4 60.4 0 0 1-17-22.7c-4.1-9.1-6.1-19.8-6.1-32.1s2.2-24.1 6.5-33.5a63.3 63.3 0 0 1 18.1-23.3 74.1 74.1 0 0 1 25.9-12.9 114.5 114.5 0 0 1 30.5-4 107.7 107.7 0 0 1 26.2 3 126.1 126.1 0 0 1 22.4 8.1v37.9h-6.3l-6.2-5.2a60.6 60.6 0 0 0-20.1-10.3 49.1 49.1 0 0 0-14-1.8c-11.9 0-21 3.8-27.4 11.3s-9.5 17.8-9.5 30.7 3.3 23.5 9.8 30.4 15.8 10.3 27.8 10.3a54.3 54.3 0 0 0 15.1-1.9 43.5 43.5 0 0 0 11.2-4.5 53.7 53.7 0 0 0 7.4-5.2c2.1-1.8 4.1-3.5 5.9-5.3h6.3v37.9a125 125 0 0 1-22 7.9 103.8 103.8 0 0 1-25.2 2.9zm214.8-3.7H2463V666a131.8 131.8 0 0 1-22.6 14.2c-6.8 3.3-15 4.9-24.4 4.9q-23 0-35.4-13.2t-12.3-39v-90.3h44.5v68.8c0 7 .3 12.8.7 17.5a30.1 30.1 0 0 0 3.2 11.5 14.1 14.1 0 0 0 7.1 6.7c3.1 1.4 7.6 2.1 13.2 2.1a43.6 43.6 0 0 0 12.6-2.1 54.2 54.2 0 0 0 13.4-6.2v-98.3h44.6zm178.5-61.1h-101.7c.6 10.8 4.8 19.1 12.4 24.9s18.8 8.6 33.6 8.6a75 75 0 0 0 27.3-5c8.8-3.4 15.8-7 20.9-10.9h4.9v35.7a166 166 0 0 1-28.4 8.8 148.2 148.2 0 0 1-29.5 2.7q-41.7 0-63.9-18.8t-22.3-53.5q0-34.4 21.1-54.4c14-13.3 33.3-20 57.7-20 22.6 0 39.5 5.7 50.9 17.1s17 27.8 17 49.2zm-44.2-26.1q-.3-14-6.9-21c-4.4-4.7-11.1-7-20.4-7s-15.6 2.2-21.1 6.6-8.6 11.6-9.2 21.4z"/></svg>