<svg xmlns="http://www.w3.org/2000/svg"><symbol id="facebook-icon" viewBox="0 0 113.2 113.2"><path d="M91.3 0H21.9A21.9 21.9 0 0 0 0 21.9v69.4a21.9 21.9 0 0 0 21.9 21.9h69.4a21.9 21.9 0 0 0 21.9-21.9V21.9A21.9 21.9 0 0 0 91.3 0zm6.3 13h2.5v19.2H81V13.1zM40.4 45a19.9 19.9 0 0 1 32.3 0 19.2 19.2 0 0 1 3.8 11.6A19.9 19.9 0 1 1 40.4 45zm61.7 46.3a10.8 10.8 0 0 1-10.8 10.8H21.9A10.8 10.8 0 0 1 11 91.3V45h16.9a32 32 0 0 0-2.3 11.6 31 31 0 0 0 61.9 0A30 30 0 0 0 85.2 45h16.9z"/></symbol><symbol id="instagram-icon" viewBox="0 0 114.1 114.1"><path fill-rule="evenodd" d="M0 104.5a9.6 9.6 0 0 0 9.5 9.6h95a9.6 9.6 0 0 0 9.6-9.6v-95a9.6 9.6 0 0 0-9.6-9.5h-95A9.6 9.6 0 0 0 0 9.5v95zm59.4-4.7v-38h-9.5V47.5h9.5c0-24.5 1-26.1 30.9-26.1v14.2c-15.7 0-14.3.9-14.3 11.9h14.3v14.3H76v38z"/></symbol><symbol id="twitter-icon" viewBox="0 0 114 114"><path fill-rule="evenodd" d="M99.4 0H14.6A14.7 14.7 0 0 0 0 14.6v84.8A14.7 14.7 0 0 0 14.6 114h84.8A14.7 14.7 0 0 0 114 99.4V14.6A14.7 14.7 0 0 0 99.4 0zM87.3 41.7v2a42.2 42.2 0 0 1-1.1 9.3c-3.9 17.5-18.9 34.4-43.3 34.4A44.3 44.3 0 0 1 19 80.5a22.3 22.3 0 0 0 3.7.2 31.9 31.9 0 0 0 19.4-6.5 15.7 15.7 0 0 1-14.6-10.7 14.2 14.2 0 0 0 7-.3 15.5 15.5 0 0 1-11.4-9.5 14.5 14.5 0 0 1-1-5.5V48a16.6 16.6 0 0 0 7 1.9 15.3 15.3 0 0 1-6.9-12.8 14.4 14.4 0 0 1 2.1-7.7 44.3 44.3 0 0 0 32.1 16 19.7 19.7 0 0 1-.4-3.5 15.7 15.7 0 0 1 27-10.5 32.7 32.7 0 0 0 9.9-3.7 15.1 15.1 0 0 1-6.8 8.5 33.5 33.5 0 0 0 8.9-2.4 29 29 0 0 1-7.7 7.9z"/></symbol></svg>